<?xml version="1.0" encoding="UTF-8"?>
<svg xmlns="http://www.w3.org/2000/svg" version="1.1" viewBox="0 0 1280 700">
  <!-- Generator: Adobe Illustrator 28.7.5, SVG Export Plug-In . SVG Version: 1.2.0 Build 176)  -->
  <g>
    <g id="Layer_1">
      <g>
        <path d="M717.59,293.18v-134.71h52.12c26.42,0,41.3,16.79,41.3,42.84s-14.88,42.85-41.3,42.85h-22.99v49.01h-29.13ZM746.72,220.8h15.64c13.53,0,18.17-4.82,18.17-16.6v-5.78c0-11.76-4.64-16.6-18.17-16.6h-15.64v38.98Z"/>
        <path d="M861.89,293.18h-28.56v-134.71h52.09c26.45,0,41.3,16.79,41.3,42.84,0,18.92-8.68,33.77-23.74,38.02l26.45,53.85h-31.66l-22.56-49.98h-13.32v49.98ZM878.49,220.8c13.5,0,18.14-4.82,18.14-16.6v-5.78c0-11.76-4.64-16.6-18.14-16.6h-16.6v38.98h16.6Z"/>
        <path d="M972.96,203.63h-2.11v89.55h-24.7v-134.71h34.73l30.7,89.55h2.11v-89.55h24.7v134.71h-34.73l-30.7-89.55Z"/>
        <path d="M1122.47,182.21v110.97h-28.95v-110.97h-38.8v-23.74h106.55v23.74h-38.8Z"/>
        <path d="M708.91,506.12l16.78-18.54c9.85,10.83,21.99,15.83,33.98,15.83,13.71,0,21.21-6.36,21.21-17.95,0-9.46-5-13.89-18.14-16.01l-14.07-2.32c-24.13-4.05-34.37-18.92-34.37-38.61,0-25.86,17.95-40.91,48.44-40.91,20.67,0,36.48,6.94,45.94,17.95l-16.42,18.33c-7.14-7.91-17.17-12.74-29.31-12.74-12.95,0-19.49,5.41-19.49,16.03,0,9.26,5.39,13.32,18.53,15.64l14.07,2.5c21.63,3.86,34.16,16.6,34.16,37.82,0,25.31-17.74,43.83-51.51,43.83-22.38,0-39.58-8.1-49.8-20.85Z"/>
        <path d="M826.55,457.27c0-44.19,16.99-69.67,53.08-69.67,27.81,0,42.27,15.24,47.66,38.79l-26.99,6.57c-2.92-12.74-7.74-22.01-21.24-22.01-15.64,0-21.63,13.13-21.63,34.55v23.54c0,21.42,5.99,34.54,21.63,34.54,13.5,0,18.32-9.25,21.24-21.99l26.99,6.55c-5.39,23.57-19.85,38.82-47.66,38.82-36.09,0-53.08-25.49-53.08-69.7Z"/>
        <path d="M977.6,524.65h-28.56v-134.72h52.12c26.42,0,41.3,16.79,41.3,42.84,0,18.92-8.71,33.77-23.74,38.02l26.42,53.86h-31.63l-22.59-49.99h-13.32v49.99ZM994.2,452.26c13.53,0,18.14-4.82,18.14-16.6v-5.78c0-11.76-4.61-16.6-18.14-16.6h-16.6v38.98h16.6Z"/>
        <path d="M1088.7,435.09h-2.11v89.56h-24.7v-134.72h34.73l30.67,89.55h2.14v-89.55h24.7v134.72h-34.73l-30.7-89.56Z"/>
      </g>
      <path d="M11.36,160.61v-48.47C11.36,58.47,55.01,14.82,108.69,14.82h59.54v-7.71h-59.54C50.76,7.11,3.65,54.23,3.65,112.14v48.47h7.71Z"/>
      <g>
        <path d="M167.77,683.26h-59.08c-53.68,0-97.34-43.65-97.34-97.31v-59.56H3.65v59.56c0,57.9,47.12,105.02,105.05,105.02h59.08v-7.71Z"/>
        <path d="M1169.98,7.11h-59.56v7.71h59.56c53.65,0,97.31,43.65,97.31,97.32v473.81c0,53.65-43.65,97.31-97.31,97.31h-59.11v7.71h59.11c57.9,0,105.02-47.12,105.02-105.02V112.14c0-57.92-47.12-105.03-105.02-105.03Z"/>
      </g>
    </g>
  </g>
</svg>